<?xml version="1.0" encoding="utf-8"?>
<!-- Svg Vector Icons : http://www.onlinewebfonts.com/icon -->
<!DOCTYPE svg PUBLIC "-//W3C//DTD SVG 1.1//EN" "http://www.w3.org/Graphics/SVG/1.1/DTD/svg11.dtd">
<svg version="1.1" xmlns="http://www.w3.org/2000/svg" xmlns:xlink="http://www.w3.org/1999/xlink" x="0px" y="0px" viewBox="0 0 1000 1000" enable-background="new 0 0 1000 1000" xml:space="preserve">
<metadata> Svg Vector Icons : http://www.onlinewebfonts.com/icon </metadata>
<g><g><path d="M214.2,10h571.7c33.8,0,62.7,12,86.6,35.9s35.9,52.8,35.9,86.6v571.7c0,33.8-12,62.7-35.9,86.6s-52.8,35.9-86.6,35.9H622.5V745h163.3c11.3,0,20.9-4,28.9-12c8-8,12-17.6,12-28.9V132.5c0-11.3-4-20.9-12-28.9c-8-8-17.6-12-28.9-12H214.2c-11.3,0-20.9,4-28.9,12c-8,8-12,17.6-12,28.9v571.7c0,11.3,4,20.9,12,28.9c8,8,17.6,12,28.9,12h163.3v81.7H214.2c-33.8,0-62.7-12-86.6-35.9S91.7,738,91.7,704.2V132.5c0-33.8,12-62.7,35.9-86.6S180.4,10,214.2,10z M500,295.8c11.5,0,21.2,3.9,29,11.8L692.4,471c7.9,7.9,11.8,17.5,11.8,29c0,11.3-4,20.9-12,28.9c-8,8-17.6,12-28.9,12c-11.1,0-20.7-3.9-29-11.8l-93.5-93.8v513.9c0,11.3-4,20.9-12,28.9c-8,8-17.6,12-28.9,12c-11.3,0-20.9-4-28.9-12c-8-8-12-17.6-12-28.9V435.2L365.7,529c-8.3,7.9-18,11.8-29,11.8c-11.3,0-20.9-4-28.9-12c-8-8-12-17.6-12-28.9c0-11.1,3.9-20.7,11.8-29L471,307.6C478.8,299.8,488.5,295.8,500,295.8L500,295.8z"/></g></g>
</svg>